# screw_box -- generated by scripts/make_transport_box_mesh.py
mtllib screw_box.mtl
o screw_box
v -0.032512 -0.032494 -0.087655
v 0.031681 -0.032494 -0.087655
v 0.031681 0.032620 -0.087655
v -0.032512 0.032620 -0.087655
v -0.032512 -0.032494 0.106126
v 0.031681 -0.032494 0.106126
v 0.031681 0.032620 0.106126
v -0.032512 0.032620 0.106126
vt 0.000000 0.000000
vt 0.500000 0.000000
vt 0.500000 1.000000
vt 0.000000 1.000000
vt 0.000000 0.000000
vt 0.500000 0.000000
vt 0.500000 1.000000
vt 0.000000 1.000000
vt 0.000000 0.000000
vt 0.500000 0.000000
vt 0.500000 1.000000
vt 0.000000 1.000000
vt 0.000000 0.000000
vt 0.500000 0.000000
vt 0.500000 1.000000
vt 0.000000 1.000000
vt 0.500000 0.500000
vt 1.000000 0.500000
vt 1.000000 1.000000
vt 0.500000 1.000000
vt 0.500000 0.500000
vt 1.000000 0.500000
vt 1.000000 1.000000
vt 0.500000 1.000000
vn 0 -1 0
vn 1 0 0
vn 0 1 0
vn -1 0 0
vn 0 0 1
vn 0 0 -1
usemtl screw_box
f 1/1/1 2/2/1 6/3/1 5/4/1
f 2/5/2 3/6/2 7/7/2 6/8/2
f 3/9/3 4/10/3 8/11/3 7/12/3
f 4/13/4 1/14/4 5/15/4 8/16/4
f 5/17/5 6/18/5 7/19/5 8/20/5
f 4/21/6 3/22/6 2/23/6 1/24/6
