<?xml version="1.0" encoding="UTF-8" standalone="no"?>
<!DOCTYPE svg PUBLIC "-//W3C//DTD SVG 1.1//EN"
 "http://www.w3.org/Graphics/SVG/1.1/DTD/svg11.dtd">
<!-- Generated by graphviz version 2.43.0 (0)
 -->
<!-- Title: OAAT Pages: 1 -->
<svg width="856pt" height="354pt"
 viewBox="0.00 0.00 856.00 354.00" xmlns="http://www.w3.org/2000/svg" xmlns:xlink="http://www.w3.org/1999/xlink">
<g id="graph0" class="graph" transform="scale(1 1) rotate(0) translate(4 350)">
<title>OAAT</title>
<polygon fill="white" stroke="transparent" points="-4,4 -4,-350 852,-350 852,4 -4,4"/>
<text text-anchor="middle" x="424" y="-329.2" font-family="Helvetica,sans-Serif" font-size="16.00">OAAT query and policy extension structure</text>
<g id="clust1" class="cluster">
<title>cluster_infrastructure</title>
<path fill="#eef4fb" stroke="#8aa4c8" stroke-width="1.8" d="M20,-174C20,-174 267,-174 267,-174 273,-174 279,-180 279,-186 279,-186 279,-300 279,-300 279,-306 273,-312 267,-312 267,-312 20,-312 20,-312 14,-312 8,-306 8,-300 8,-300 8,-186 8,-186 8,-180 14,-174 20,-174"/>
<text text-anchor="middle" x="143.5" y="-295.2" font-family="Helvetica,sans-Serif" font-size="16.00">shared execution infrastructure</text>
</g>
<g id="clust2" class="cluster">
<title>cluster_knowledge</title>
<path fill="#fff8e6" stroke="#b9a26b" stroke-width="1.8" d="M299,-204C299,-204 828,-204 828,-204 834,-204 840,-210 840,-216 840,-216 840,-270 840,-270 840,-276 834,-282 828,-282 828,-282 299,-282 299,-282 293,-282 287,-276 287,-270 287,-270 287,-216 287,-216 287,-210 293,-204 299,-204"/>
<text text-anchor="middle" x="563.5" y="-265.2" font-family="Helvetica,sans-Serif" font-size="16.00">query inputs and policy types</text>
</g>
<g id="clust3" class="cluster">
<title>cluster_actions</title>
<path fill="#edf8f3" stroke="#77a892" stroke-width="1.8" d="M134,-8C134,-8 664,-8 664,-8 670,-8 676,-14 676,-20 676,-20 676,-134 676,-134 676,-140 670,-146 664,-146 664,-146 134,-146 134,-146 128,-146 122,-140 122,-134 122,-134 122,-20 122,-20 122,-14 128,-8 134,-8"/>
<text text-anchor="middle" x="399" y="-129.2" font-family="Helvetica,sans-Serif" font-size="16.00">action&#45;specific extension points</text>
</g>
<!-- base -->
<g id="node1" class="node">
<title>base</title>
<path fill="#d8e8f8" stroke="#2f3a45" stroke-width="1.6" d="M155,-182.5C155,-182.5 259,-182.5 259,-182.5 265,-182.5 271,-188.5 271,-194.5 271,-194.5 271,-265.5 271,-265.5 271,-271.5 265,-277.5 259,-277.5 259,-277.5 155,-277.5 155,-277.5 149,-277.5 143,-271.5 143,-265.5 143,-265.5 143,-194.5 143,-194.5 143,-188.5 149,-182.5 155,-182.5"/>
<text text-anchor="middle" x="207" y="-265.5" font-family="Helvetica,sans-Serif" font-size="10.00">GeneralizedActionPlan</text>
<polyline fill="none" stroke="#2f3a45" stroke-width="1.6" points="143,-258.5 271,-258.5 "/>
<text text-anchor="middle" x="207" y="-246.5" font-family="Helvetica,sans-Serif" font-size="10.00">execute lifecycle</text>
<polyline fill="none" stroke="#2f3a45" stroke-width="1.6" points="143,-239.5 271,-239.5 "/>
<text text-anchor="middle" x="207" y="-227.5" font-family="Helvetica,sans-Serif" font-size="10.00">motion building</text>
<polyline fill="none" stroke="#2f3a45" stroke-width="1.6" points="143,-220.5 271,-220.5 "/>
<text text-anchor="middle" x="207" y="-208.5" font-family="Helvetica,sans-Serif" font-size="10.00">waypoint logging</text>
<polyline fill="none" stroke="#2f3a45" stroke-width="1.6" points="143,-201.5 271,-201.5 "/>
<text text-anchor="middle" x="207" y="-189.5" font-family="Helvetica,sans-Serif" font-size="10.00">generic arm/tool query</text>
</g>
<!-- mixing -->
<g id="node5" class="node">
<title>mixing</title>
<path fill="#dff1e8" stroke="#2f3a45" stroke-width="1.6" d="M558,-16.5C558,-16.5 656,-16.5 656,-16.5 662,-16.5 668,-22.5 668,-28.5 668,-28.5 668,-99.5 668,-99.5 668,-105.5 662,-111.5 656,-111.5 656,-111.5 558,-111.5 558,-111.5 552,-111.5 546,-105.5 546,-99.5 546,-99.5 546,-28.5 546,-28.5 546,-22.5 552,-16.5 558,-16.5"/>
<text text-anchor="middle" x="607" y="-99.5" font-family="Helvetica,sans-Serif" font-size="10.00">MixingAction</text>
<polyline fill="none" stroke="#2f3a45" stroke-width="1.6" points="546,-92.5 668,-92.5 "/>
<text text-anchor="middle" x="607" y="-80.5" font-family="Helvetica,sans-Serif" font-size="10.00">resolver boundary</text>
<polyline fill="none" stroke="#2f3a45" stroke-width="1.6" points="546,-73.5 668,-73.5 "/>
<text text-anchor="middle" x="607" y="-61.5" font-family="Helvetica,sans-Serif" font-size="10.00">policy selector</text>
<polyline fill="none" stroke="#2f3a45" stroke-width="1.6" points="546,-54.5 668,-54.5 "/>
<text text-anchor="middle" x="607" y="-42.5" font-family="Helvetica,sans-Serif" font-size="10.00">candidate scoring</text>
<polyline fill="none" stroke="#2f3a45" stroke-width="1.6" points="546,-35.5 668,-35.5 "/>
<text text-anchor="middle" x="607" y="-23.5" font-family="Helvetica,sans-Serif" font-size="10.00">object&#45;local sampling</text>
</g>
<!-- base&#45;&gt;mixing -->
<g id="edge1" class="edge">
<title>base&#45;&gt;mixing</title>
<path fill="none" stroke="#3778bf" stroke-width="1.4" d="M264.41,-182.36C270.44,-179.04 276.68,-176.16 283,-174 314.45,-163.23 556.12,-184.86 582,-164 595.34,-153.24 602.17,-136.49 605.51,-119.81"/>
<polygon fill="#3778bf" stroke="#3778bf" stroke-width="1.4" points="608.31,-120 606.88,-111.65 602.79,-119.08 608.31,-120"/>
<text text-anchor="middle" x="608" y="-156.8" font-family="Helvetica,sans-Serif" font-size="9.00">inherits</text>
</g>
<!-- wiping -->
<g id="node6" class="node">
<title>wiping</title>
<path fill="#dff1e8" stroke="#2f3a45" stroke-width="1.6" d="M278,-16.5C278,-16.5 376,-16.5 376,-16.5 382,-16.5 388,-22.5 388,-28.5 388,-28.5 388,-99.5 388,-99.5 388,-105.5 382,-111.5 376,-111.5 376,-111.5 278,-111.5 278,-111.5 272,-111.5 266,-105.5 266,-99.5 266,-99.5 266,-28.5 266,-28.5 266,-22.5 272,-16.5 278,-16.5"/>
<text text-anchor="middle" x="327" y="-99.5" font-family="Helvetica,sans-Serif" font-size="10.00">WipingAction</text>
<polyline fill="none" stroke="#2f3a45" stroke-width="1.6" points="266,-92.5 388,-92.5 "/>
<text text-anchor="middle" x="327" y="-80.5" font-family="Helvetica,sans-Serif" font-size="10.00">resolver boundary</text>
<polyline fill="none" stroke="#2f3a45" stroke-width="1.6" points="266,-73.5 388,-73.5 "/>
<text text-anchor="middle" x="327" y="-61.5" font-family="Helvetica,sans-Serif" font-size="10.00">policy selector</text>
<polyline fill="none" stroke="#2f3a45" stroke-width="1.6" points="266,-54.5 388,-54.5 "/>
<text text-anchor="middle" x="327" y="-42.5" font-family="Helvetica,sans-Serif" font-size="10.00">candidate scoring</text>
<polyline fill="none" stroke="#2f3a45" stroke-width="1.6" points="266,-35.5 388,-35.5 "/>
<text text-anchor="middle" x="327" y="-23.5" font-family="Helvetica,sans-Serif" font-size="10.00">object&#45;local sampling</text>
</g>
<!-- base&#45;&gt;wiping -->
<g id="edge5" class="edge">
<title>base&#45;&gt;wiping</title>
<path fill="none" stroke="#3778bf" stroke-width="1.4" d="M208.72,-182.19C211.19,-171.79 215.55,-161.61 223,-154 233.86,-142.91 243.72,-154.04 257,-146 269.09,-138.68 280.18,-128.55 289.79,-117.94"/>
<polygon fill="#3778bf" stroke="#3778bf" stroke-width="1.4" points="292.13,-119.52 295.28,-111.65 287.91,-115.84 292.13,-119.52"/>
<text text-anchor="middle" x="240" y="-156.8" font-family="Helvetica,sans-Serif" font-size="9.00">inherits</text>
</g>
<!-- cutting -->
<g id="node7" class="node">
<title>cutting</title>
<path fill="#dff1e8" stroke="#2f3a45" stroke-width="1.6" d="M418,-16.5C418,-16.5 516,-16.5 516,-16.5 522,-16.5 528,-22.5 528,-28.5 528,-28.5 528,-99.5 528,-99.5 528,-105.5 522,-111.5 516,-111.5 516,-111.5 418,-111.5 418,-111.5 412,-111.5 406,-105.5 406,-99.5 406,-99.5 406,-28.5 406,-28.5 406,-22.5 412,-16.5 418,-16.5"/>
<text text-anchor="middle" x="467" y="-99.5" font-family="Helvetica,sans-Serif" font-size="10.00">CuttingAction</text>
<polyline fill="none" stroke="#2f3a45" stroke-width="1.6" points="406,-92.5 528,-92.5 "/>
<text text-anchor="middle" x="467" y="-80.5" font-family="Helvetica,sans-Serif" font-size="10.00">resolver boundary</text>
<polyline fill="none" stroke="#2f3a45" stroke-width="1.6" points="406,-73.5 528,-73.5 "/>
<text text-anchor="middle" x="467" y="-61.5" font-family="Helvetica,sans-Serif" font-size="10.00">policy selector</text>
<polyline fill="none" stroke="#2f3a45" stroke-width="1.6" points="406,-54.5 528,-54.5 "/>
<text text-anchor="middle" x="467" y="-42.5" font-family="Helvetica,sans-Serif" font-size="10.00">candidate scoring</text>
<polyline fill="none" stroke="#2f3a45" stroke-width="1.6" points="406,-35.5 528,-35.5 "/>
<text text-anchor="middle" x="467" y="-23.5" font-family="Helvetica,sans-Serif" font-size="10.00">object&#45;local sampling</text>
</g>
<!-- base&#45;&gt;cutting -->
<g id="edge9" class="edge">
<title>base&#45;&gt;cutting</title>
<path fill="none" stroke="#3778bf" stroke-width="1.4" d="M265.44,-182.28C271.16,-179.09 277.06,-176.25 283,-174 326.02,-157.73 345.44,-185.68 386,-164 405.71,-153.46 422.44,-135.91 435.49,-118.49"/>
<polygon fill="#3778bf" stroke="#3778bf" stroke-width="1.4" points="438.07,-119.7 440.49,-111.57 433.53,-116.41 438.07,-119.7"/>
<text text-anchor="middle" x="417" y="-156.8" font-family="Helvetica,sans-Serif" font-size="9.00">inherits</text>
</g>
<!-- semantic -->
<g id="node2" class="node">
<title>semantic</title>
<path fill="#f8e3a3" stroke="#2f3a45" stroke-width="1.6" d="M428.5,-248C428.5,-248 307.5,-248 307.5,-248 301.5,-248 295.5,-242 295.5,-236 295.5,-236 295.5,-224 295.5,-224 295.5,-218 301.5,-212 307.5,-212 307.5,-212 428.5,-212 428.5,-212 434.5,-212 440.5,-218 440.5,-224 440.5,-224 440.5,-236 440.5,-236 440.5,-242 434.5,-248 428.5,-248"/>
<text text-anchor="middle" x="368" y="-227.5" font-family="Helvetica,sans-Serif" font-size="10.00">SDT semantic annotations</text>
</g>
<!-- semantic&#45;&gt;mixing -->
<g id="edge2" class="edge">
<title>semantic&#45;&gt;mixing</title>
<path fill="none" stroke="#a07822" stroke-width="1.4" d="M386.93,-211.9C402.6,-198.91 426.09,-181.95 450,-174 470.48,-167.19 629.14,-179.65 644,-164 655.83,-151.54 654.06,-134.95 647.04,-118.91"/>
<polygon fill="#a07822" stroke="#a07822" stroke-width="1.4" points="649.5,-117.57 643.48,-111.6 644.47,-120.02 649.5,-117.57"/>
<text text-anchor="middle" x="662.5" y="-156.8" font-family="Helvetica,sans-Serif" font-size="9.00">query</text>
</g>
<!-- semantic&#45;&gt;wiping -->
<g id="edge6" class="edge">
<title>semantic&#45;&gt;wiping</title>
<path fill="none" stroke="#a07822" stroke-width="1.4" d="M342.62,-211.94C325.87,-200.84 303.34,-186.21 283,-174 275.15,-169.29 269.64,-171.89 265,-164 256.17,-148.99 260.24,-132.92 269.54,-118.18"/>
<polygon fill="#a07822" stroke="#a07822" stroke-width="1.4" points="271.91,-119.68 274.16,-111.51 267.3,-116.49 271.91,-119.68"/>
<text text-anchor="middle" x="278.5" y="-156.8" font-family="Helvetica,sans-Serif" font-size="9.00">query</text>
</g>
<!-- semantic&#45;&gt;cutting -->
<g id="edge10" class="edge">
<title>semantic&#45;&gt;cutting</title>
<path fill="none" stroke="#a07822" stroke-width="1.4" d="M395.05,-211.96C411.3,-200.35 431.08,-183.57 443,-164 451.15,-150.62 456.53,-134.66 460.09,-119.49"/>
<polygon fill="#a07822" stroke="#a07822" stroke-width="1.4" points="462.83,-120.06 461.79,-111.65 457.36,-118.87 462.83,-120.06"/>
<text text-anchor="middle" x="461.5" y="-156.8" font-family="Helvetica,sans-Serif" font-size="9.00">query</text>
</g>
<!-- simplepouring -->
<g id="node8" class="node">
<title>simplepouring</title>
<path fill="#f2e2f7" stroke="#2f3a45" stroke-width="1.6" d="M142,-26C142,-26 236,-26 236,-26 242,-26 248,-32 248,-38 248,-38 248,-90 248,-90 248,-96 242,-102 236,-102 236,-102 142,-102 142,-102 136,-102 130,-96 130,-90 130,-90 130,-38 130,-38 130,-32 136,-26 142,-26"/>
<text text-anchor="middle" x="189" y="-90" font-family="Helvetica,sans-Serif" font-size="10.00">SimplePouringAction</text>
<polyline fill="none" stroke="#2f3a45" stroke-width="1.6" points="130,-83 248,-83 "/>
<text text-anchor="middle" x="189" y="-71" font-family="Helvetica,sans-Serif" font-size="10.00">resolver boundary</text>
<polyline fill="none" stroke="#2f3a45" stroke-width="1.6" points="130,-64 248,-64 "/>
<text text-anchor="middle" x="189" y="-52" font-family="Helvetica,sans-Serif" font-size="10.00">policy selector</text>
<polyline fill="none" stroke="#2f3a45" stroke-width="1.6" points="130,-45 248,-45 "/>
<text text-anchor="middle" x="189" y="-33" font-family="Helvetica,sans-Serif" font-size="10.00">candidate scoring</text>
</g>
<!-- semantic&#45;&gt;simplepouring -->
<g id="edge14" class="edge">
<title>semantic&#45;&gt;simplepouring</title>
<path fill="none" stroke="#a07822" stroke-width="1.4" d="M348.25,-211.94C331.94,-198.97 307.56,-182.02 283,-174 264.49,-167.95 121.37,-178.16 108,-164 91.14,-146.15 103.96,-125.24 123.96,-107.26"/>
<polygon fill="#a07822" stroke="#a07822" stroke-width="1.4" points="125.82,-109.35 130.08,-102.02 122.18,-105.1 125.82,-109.35"/>
<text text-anchor="middle" x="121.5" y="-156.8" font-family="Helvetica,sans-Serif" font-size="9.00">query</text>
</g>
<!-- policies -->
<g id="node3" class="node">
<title>policies</title>
<path fill="#f4d184" stroke="#2f3a45" stroke-width="1.6" d="M559.5,-248C559.5,-248 470.5,-248 470.5,-248 464.5,-248 458.5,-242 458.5,-236 458.5,-236 458.5,-224 458.5,-224 458.5,-218 464.5,-212 470.5,-212 470.5,-212 559.5,-212 559.5,-212 565.5,-212 571.5,-218 571.5,-224 571.5,-224 571.5,-236 571.5,-236 571.5,-242 565.5,-248 559.5,-248"/>
<text text-anchor="middle" x="515" y="-227.5" font-family="Helvetica,sans-Serif" font-size="10.00">typed policy enums</text>
</g>
<!-- policies&#45;&gt;mixing -->
<g id="edge3" class="edge">
<title>policies&#45;&gt;mixing</title>
<path fill="none" stroke="#b05f2c" stroke-width="1.4" d="M529.94,-211.87C542.23,-199.03 560.87,-182.31 581,-174 604.3,-164.38 676.98,-182.59 694,-164 711.44,-144.95 696.58,-123.45 674.52,-105.36"/>
<polygon fill="#b05f2c" stroke="#b05f2c" stroke-width="1.4" points="676.15,-103.09 668.13,-100.36 672.7,-107.49 676.15,-103.09"/>
<text text-anchor="middle" x="712.5" y="-156.8" font-family="Helvetica,sans-Serif" font-size="9.00">policy</text>
</g>
<!-- policies&#45;&gt;wiping -->
<g id="edge7" class="edge">
<title>policies&#45;&gt;wiping</title>
<path fill="none" stroke="#b05f2c" stroke-width="1.4" d="M500.38,-211.79C488.31,-198.91 469.98,-182.17 450,-174 422.16,-162.62 335.47,-186.04 315,-164 303.91,-152.06 302.6,-135.52 305.37,-119.38"/>
<polygon fill="#b05f2c" stroke="#b05f2c" stroke-width="1.4" points="308.12,-119.91 307.03,-111.51 302.64,-118.76 308.12,-119.91"/>
<text text-anchor="middle" x="328.5" y="-156.8" font-family="Helvetica,sans-Serif" font-size="9.00">policy</text>
</g>
<!-- policies&#45;&gt;cutting -->
<g id="edge11" class="edge">
<title>policies&#45;&gt;cutting</title>
<path fill="none" stroke="#b05f2c" stroke-width="1.4" d="M509.95,-211.76C503.61,-190.08 492.41,-151.81 483.03,-119.78"/>
<polygon fill="#b05f2c" stroke="#b05f2c" stroke-width="1.4" points="485.63,-118.68 480.7,-111.79 480.26,-120.26 485.63,-118.68"/>
<text text-anchor="middle" x="508.5" y="-156.8" font-family="Helvetica,sans-Serif" font-size="9.00">policy</text>
</g>
<!-- policies&#45;&gt;simplepouring -->
<g id="edge15" class="edge">
<title>policies&#45;&gt;simplepouring</title>
<path fill="none" stroke="#b05f2c" stroke-width="1.4" d="M500.7,-211.85C488.69,-198.83 470.26,-181.86 450,-174 422.42,-163.31 204.52,-185.3 184,-164 170.52,-150.01 169.9,-129.11 173.42,-110.11"/>
<polygon fill="#b05f2c" stroke="#b05f2c" stroke-width="1.4" points="176.2,-110.53 175.16,-102.11 170.73,-109.34 176.2,-110.53"/>
<text text-anchor="middle" x="197.5" y="-156.8" font-family="Helvetica,sans-Serif" font-size="9.00">policy</text>
</g>
<!-- candidates -->
<g id="node4" class="node">
<title>candidates</title>
<path fill="#fdebc3" stroke="#2f3a45" stroke-width="1.6" d="M820,-248C820,-248 602,-248 602,-248 596,-248 590,-242 590,-236 590,-236 590,-224 590,-224 590,-218 596,-212 602,-212 602,-212 820,-212 820,-212 826,-212 832,-218 832,-224 832,-224 832,-236 832,-236 832,-242 826,-248 820,-248"/>
<text text-anchor="middle" x="711" y="-227.5" font-family="Helvetica,sans-Serif" font-size="10.00">frozen scene/constraint/candidate dataclasses</text>
</g>
<!-- candidates&#45;&gt;mixing -->
<g id="edge4" class="edge">
<title>candidates&#45;&gt;mixing</title>
<path fill="none" stroke="#5b8f76" stroke-width="1.4" d="M749.94,-211.88C775.7,-197.98 802.3,-176.97 788,-154 763.57,-114.76 716.21,-92.33 676.07,-79.8"/>
<polygon fill="#5b8f76" stroke="#5b8f76" stroke-width="1.4" points="676.87,-77.12 668.41,-77.5 675.26,-82.48 676.87,-77.12"/>
<text text-anchor="middle" x="801.5" y="-156.8" font-family="Helvetica,sans-Serif" font-size="9.00">rank</text>
</g>
<!-- candidates&#45;&gt;wiping -->
<g id="edge8" class="edge">
<title>candidates&#45;&gt;wiping</title>
<path fill="none" stroke="#5b8f76" stroke-width="1.4" d="M672.25,-211.99C646.51,-200.84 611.9,-186.15 581,-174 556.79,-164.49 551.46,-159.3 526,-154 497.88,-148.14 422.74,-158.75 397,-146 383.65,-139.39 371.8,-128.97 361.81,-117.79"/>
<polygon fill="#5b8f76" stroke="#5b8f76" stroke-width="1.4" points="363.78,-115.78 356.46,-111.51 359.52,-119.42 363.78,-115.78"/>
<text text-anchor="middle" x="567.5" y="-156.8" font-family="Helvetica,sans-Serif" font-size="9.00">rank</text>
</g>
<!-- candidates&#45;&gt;cutting -->
<g id="edge12" class="edge">
<title>candidates&#45;&gt;cutting</title>
<path fill="none" stroke="#5b8f76" stroke-width="1.4" d="M723.29,-211.81C733.74,-194.93 744.88,-169.51 730,-154 715.14,-138.51 556.33,-155.33 537,-146 523.58,-139.52 511.71,-129.16 501.72,-117.98"/>
<polygon fill="#5b8f76" stroke="#5b8f76" stroke-width="1.4" points="503.69,-115.98 496.37,-111.71 499.43,-119.61 503.69,-115.98"/>
<text text-anchor="middle" x="745.5" y="-156.8" font-family="Helvetica,sans-Serif" font-size="9.00">rank</text>
</g>
<!-- candidates&#45;&gt;simplepouring -->
<g id="edge16" class="edge">
<title>candidates&#45;&gt;simplepouring</title>
<path fill="none" stroke="#5b8f76" stroke-width="1.4" d="M679.47,-211.91C653.78,-198.91 616.13,-181.96 581,-174 485.54,-152.37 455.46,-189.63 361,-164 351.79,-161.5 351.15,-156.72 342,-154 305.63,-143.18 290.6,-163.63 257,-146 240.64,-137.42 226.64,-123.08 215.67,-108.82"/>
<polygon fill="#5b8f76" stroke="#5b8f76" stroke-width="1.4" points="217.85,-107.07 210.84,-102.3 213.35,-110.4 217.85,-107.07"/>
<text text-anchor="middle" x="371.5" y="-156.8" font-family="Helvetica,sans-Serif" font-size="9.00">rank</text>
</g>
<!-- simplepouring&#45;&gt;base -->
<g id="edge13" class="edge">
<title>simplepouring&#45;&gt;base</title>
<path fill="none" stroke="#8a55a2" stroke-width="1.4" stroke-dasharray="5,2" d="M129.75,-74.63C65.32,-87.76 -24.08,-115.4 11,-164 39.05,-202.86 91.25,-218.86 134.73,-225.28"/>
<polygon fill="#8a55a2" stroke="#8a55a2" stroke-width="1.4" points="134.44,-228.06 142.74,-226.37 135.19,-222.51 134.44,-228.06"/>
<text text-anchor="middle" x="48" y="-156.8" font-family="Helvetica,sans-Serif" font-size="9.00">reuses concepts</text>
</g>
</g>
</svg>
